<?xml version="1.0" standalone="no"?>
<!DOCTYPE svg PUBLIC "-//W3C//DTD SVG 20010904//EN"
 "http://www.w3.org/TR/2001/REC-SVG-20010904/DTD/svg10.dtd">
<svg version="1.0" xmlns="http://www.w3.org/2000/svg"
 width="1080.000000pt" height="1081.000000pt" viewBox="0 0 1080.000000 1081.000000"
 preserveAspectRatio="xMidYMid meet">
<metadata>
Created by potrace 1.16, written by Peter Selinger 2001-2019
</metadata>
<g transform="translate(0.000000,1081.000000) scale(0.100000,-0.100000)"
fill="#000000" stroke="none">
<path d="M3560 10794 c-25 -9 -54 -24 -65 -33 -27 -23 -126 -86 -148 -94 -9
-4 -16 -11 -15 -16 2 -5 -5 -17 -15 -28 -26 -27 -77 -106 -77 -120 0 -7 -8
-21 -17 -31 -25 -26 -38 -48 -73 -119 -34 -71 -40 -147 -15 -206 8 -20 15 -52
15 -71 0 -42 -38 -105 -64 -106 -15 0 -17 -5 -11 -27 3 -16 13 -35 21 -44 8
-8 14 -23 14 -32 0 -9 7 -35 16 -58 16 -38 16 -43 1 -75 -9 -18 -14 -40 -11
-48 4 -9 -6 -26 -23 -42 -15 -14 -29 -30 -29 -35 -1 -5 -2 -15 -3 -23 0 -8
-10 -18 -22 -21 -27 -9 -84 44 -111 103 -10 23 -24 42 -31 42 -12 0 -37 -44
-37 -66 0 -24 -22 -26 -45 -4 -22 20 -25 21 -31 7 -3 -9 -1 -39 6 -66 10 -42
9 -53 -4 -74 -25 -38 -45 -129 -41 -184 5 -56 32 -126 63 -161 31 -35 18 -54
-32 -50 l-41 3 3 -40 c5 -50 17 -65 53 -65 15 0 31 -5 34 -11 4 -5 19 -7 35
-4 34 8 80 -3 80 -19 0 -7 16 -20 36 -29 33 -16 35 -20 32 -58 -3 -36 -8 -44
-37 -60 -27 -14 -40 -31 -54 -71 -11 -29 -31 -66 -43 -81 -13 -16 -24 -34 -24
-40 0 -15 13 -65 46 -177 37 -123 35 -119 45 -91 6 14 7 31 5 38 -8 19 23 29
45 15 29 -18 39 -14 39 16 0 15 4 32 8 38 8 12 47 11 82 -4 17 -6 44 -6 80 0
30 5 60 10 67 10 7 1 11 6 10 11 -1 6 16 14 38 18 22 4 65 20 95 37 217 116
317 156 356 141 30 -12 91 -10 120 3 22 10 28 10 32 0 5 -15 68 -16 78 0 5 8
2 9 -9 5 -10 -3 -17 -3 -17 2 0 16 39 19 45 4 4 -13 16 -14 60 -9 40 4 64 2
84 -8 17 -9 62 -16 117 -17 84 -2 91 -4 116 -30 32 -34 42 -35 93 -9 42 22 75
26 75 10 0 -5 11 -10 25 -10 13 0 28 -7 33 -16 6 -10 20 -16 38 -15 92 5 152
11 176 17 33 8 194 -41 224 -68 11 -10 23 -15 27 -12 4 4 13 2 20 -4 8 -7 17
-9 20 -5 9 9 57 -37 57 -54 0 -7 9 -13 20 -13 11 0 27 -11 36 -25 26 -40 124
-82 124 -54 0 8 17 10 53 6 28 -3 69 -1 89 5 31 9 46 8 89 -11 28 -11 65 -21
81 -21 20 0 37 -8 50 -25 11 -14 28 -25 39 -25 44 0 75 -28 96 -83 19 -52 19
-56 3 -67 -12 -9 -19 -33 -24 -82 -3 -39 -11 -78 -16 -88 -6 -10 -10 -38 -10
-62 0 -47 -10 -78 -58 -180 -18 -37 -32 -73 -32 -80 1 -37 -36 -168 -47 -168
-18 0 -22 -12 -27 -86 -7 -103 -26 -157 -55 -159 -14 -1 -32 -12 -42 -23 -9
-12 -22 -22 -28 -22 -12 0 -31 -32 -31 -54 0 -20 60 -115 90 -141 26 -24 55
-75 52 -92 -4 -18 106 -17 283 2 243 25 497 46 575 47 41 0 125 0 185 0 97 0
366 4 435 7 55 2 428 5 475 3 28 -1 76 -1 107 -1 53 0 58 -2 64 -26 6 -23 -2
-90 -13 -108 -2 -4 -18 2 -34 13 -32 24 -34 22 -18 -34 9 -34 9 -42 -6 -52
-11 -8 -16 -21 -12 -34 3 -11 1 -23 -4 -26 -16 -9 -10 -19 21 -32 40 -18 38
-28 -7 -36 -52 -8 -118 -8 -109 1 4 5 -39 14 -96 21 -57 7 -110 14 -118 15
-27 4 -58 32 -62 56 -3 25 -32 50 -43 39 -4 -4 -2 -38 4 -76 15 -95 11 -102
-56 -102 -30 0 -67 -7 -83 -15 -16 -8 -36 -12 -44 -9 -9 4 -23 1 -30 -6 -11
-9 -21 -8 -43 3 -15 8 -57 18 -93 21 -146 16 -208 42 -210 86 0 8 -9 33 -20
55 -11 22 -19 48 -20 57 0 9 -5 20 -11 24 -12 7 -11 2 9 -96 17 -80 25 -203
13 -196 -6 4 -11 16 -11 27 0 11 -4 17 -10 14 -5 -3 -7 0 -4 8 16 43 -83 75
-171 57 -27 -6 -64 -13 -81 -16 -20 -4 -45 0 -68 11 -33 16 -42 16 -79 4 -23
-7 -73 -14 -112 -16 -108 -3 -291 -5 -382 -3 -97 2 -159 -6 -190 -26 -12 -8
-33 -14 -47 -14 -14 0 -28 -5 -31 -10 -4 -6 -37 -10 -77 -9 -66 2 -72 0 -90
-25 -14 -19 -29 -26 -51 -26 -18 0 -57 -9 -87 -20 -30 -11 -70 -20 -88 -20
-18 0 -46 -10 -62 -21 -24 -18 -36 -21 -77 -15 -26 4 -65 10 -86 13 -23 3 -41
13 -48 25 -6 11 -17 17 -24 14 -8 -3 -17 4 -21 16 -6 20 -8 20 -19 5 -9 -12
-14 -14 -23 -5 -9 9 -12 8 -12 -5 0 -15 -9 -18 -45 -17 -3 0 -18 -6 -34 -14
-16 -9 -48 -22 -71 -30 -42 -14 -43 -14 -84 17 -39 29 -86 104 -86 136 0 14
-28 40 -42 41 -11 0 -10 -34 1 -45 11 -13 22 -115 12 -115 -18 0 -51 48 -53
80 -2 19 -9 40 -16 45 -7 6 -12 17 -10 25 2 8 -9 16 -27 21 -16 4 -55 15 -85
24 -155 44 -768 -9 -985 -85 -33 -12 -80 -28 -104 -36 -105 -34 -251 -119
-401 -232 -45 -34 -108 -74 -139 -89 -31 -14 -89 -41 -129 -61 -62 -30 -83
-35 -135 -33 -34 1 -68 8 -77 15 -63 53 -359 87 -426 47 -11 -5 -15 -11 -11
-11 4 0 -8 -14 -28 -31 -40 -35 -44 -49 -15 -49 18 0 14 -9 -27 -72 -45 -67
-48 -75 -51 -147 -2 -43 3 -104 11 -141 100 -438 214 -805 313 -1004 89 -181
90 -183 121 -189 16 -3 38 -15 50 -26 14 -13 24 -17 28 -10 5 7 11 7 20 -1 16
-13 40 23 80 120 14 36 35 83 45 105 11 22 43 105 73 185 61 163 126 314 215
500 33 69 62 133 66 143 15 44 45 3 96 -128 71 -184 171 -394 223 -470 34 -49
152 -188 201 -237 25 -26 46 -51 46 -56 0 -14 54 -33 120 -43 75 -12 95 -16
119 -24 11 -3 33 -9 48 -11 16 -3 31 -11 36 -19 4 -7 22 -17 40 -20 17 -4 37
-12 44 -17 6 -5 17 -8 25 -7 7 1 26 -3 41 -9 16 -7 35 -12 44 -12 8 0 31 -7
50 -17 29 -13 41 -14 67 -5 42 15 99 15 114 0 9 -9 12 -9 12 0 0 7 8 12 19 12
20 0 130 54 177 87 16 11 48 24 72 28 32 5 45 13 52 30 5 13 15 27 23 32 17
10 41 53 33 60 -11 12 14 41 32 36 22 -5 102 45 102 64 0 8 7 16 15 19 8 3 17
14 20 24 3 10 15 20 27 22 20 3 20 4 -6 36 -26 30 -30 72 -6 57 5 -3 12 6 16
20 3 14 12 25 20 25 20 0 37 38 31 69 -4 20 0 30 14 39 10 7 19 21 19 32 0 12
7 23 15 26 8 4 15 14 15 24 0 31 11 50 30 50 10 0 31 13 46 29 15 16 33 27 41
24 12 -5 18 19 14 55 -1 6 3 12 9 12 18 0 11 35 -10 50 -11 8 -20 20 -20 27 0
7 -4 13 -9 13 -11 0 -26 -20 -26 -35 0 -5 -10 -11 -22 -13 -13 -2 -23 1 -23 7
0 6 -11 11 -25 11 -15 0 -25 -6 -25 -14 0 -8 -7 -17 -16 -20 -12 -4 -14 -1 -9
13 4 14 0 21 -12 24 -16 4 -15 5 2 6 11 0 41 21 67 45 34 31 54 43 68 39 10
-3 33 0 49 5 21 7 33 7 37 1 3 -6 13 -8 21 -5 18 7 45 -18 32 -31 -5 -5 0 -10
14 -11 31 -3 118 18 112 28 -7 11 67 29 97 23 42 -8 95 38 103 90 4 23 2 54
-4 69 -15 39 -4 61 25 54 18 -5 24 -2 24 9 0 16 36 74 55 87 6 4 18 8 28 8 11
0 30 9 44 19 13 11 31 17 39 14 20 -8 22 45 2 58 -5 4 6 9 26 13 20 4 34 11
31 16 -3 5 -1 11 5 15 5 3 10 15 10 25 0 10 6 20 13 23 9 3 9 7 -2 20 -7 9
-11 28 -9 42 4 21 1 25 -26 30 -17 4 -34 5 -37 3 -3 -2 -12 2 -20 8 -8 6 -27
14 -44 18 -16 4 -32 11 -35 16 -3 4 -40 10 -82 14 -66 5 -78 4 -78 -9 0 -19
-43 -30 -67 -16 -11 5 -29 8 -39 5 -11 -3 -40 2 -64 11 -82 30 -154 47 -179
42 -26 -5 -121 37 -121 54 0 14 16 17 95 23 39 3 97 10 130 16 80 14 673 24
706 11 17 -7 19 -10 7 -10 -21 -1 -23 -18 -7 -58 10 -24 12 -25 18 -10 5 13
12 5 31 -38 13 -30 30 -56 37 -56 7 -1 21 -2 31 -2 9 -1 19 -4 22 -8 5 -7 244
-36 300 -37 37 0 247 -30 230 -32 -8 -1 2 -8 23 -15 44 -17 58 -29 81 -73 16
-31 24 -36 58 -33 18 2 55 -49 81 -110 8 -19 31 -56 51 -82 49 -64 86 -150 86
-201 0 -24 8 -53 20 -71 17 -25 20 -46 19 -130 -1 -111 9 -148 43 -166 37 -19
44 -34 28 -59 -9 -13 -11 -13 -20 0 -7 11 -10 12 -10 2 0 -7 7 -20 15 -28 17
-17 20 -70 5 -79 -5 -3 -10 0 -10 8 0 17 -27 30 -34 18 -3 -5 -8 -34 -12 -64
-5 -45 -3 -62 11 -83 23 -35 93 -104 105 -104 6 0 10 -13 10 -29 0 -40 23 -58
54 -41 15 8 38 10 64 5 34 -5 42 -3 51 14 6 11 8 26 5 35 -3 9 5 25 20 39 14
13 26 29 26 34 0 6 7 16 15 23 18 15 21 45 3 34 -7 -5 -8 -3 -4 5 5 7 2 25 -4
42 -9 21 -19 29 -37 29 -23 0 -25 3 -19 32 8 42 50 105 75 113 22 7 37 41 46
107 3 26 15 58 26 72 11 14 21 43 24 66 2 23 8 47 13 53 5 7 13 32 16 57 16
103 11 97 74 103 31 2 62 0 69 -5 16 -13 73 0 73 16 0 26 82 79 134 87 32 5
57 16 68 29 9 11 23 20 31 20 8 0 27 10 42 22 16 12 40 22 54 23 22 0 26 4 23
28 -2 18 5 37 22 58 14 17 26 36 26 44 0 13 125 125 139 125 5 0 36 34 71 75
35 41 67 75 72 75 5 0 26 11 46 25 20 14 42 25 49 25 15 0 17 -24 3 -48 -31
-54 -60 -140 -60 -176 0 -22 -6 -53 -14 -68 -8 -15 -17 -47 -20 -73 -6 -41 -4
-46 16 -54 24 -9 42 -5 34 8 -3 4 -1 23 4 42 8 26 20 40 57 59 38 20 49 31 51
54 2 16 -2 39 -9 52 -13 24 -7 54 11 54 7 0 9 -8 5 -19 -5 -15 1 -20 32 -26
40 -7 93 -34 93 -47 0 -4 22 -30 48 -59 43 -46 51 -50 69 -40 12 6 31 11 43
11 34 0 80 29 91 58 9 23 7 29 -11 44 -21 17 -21 19 -6 43 9 13 24 29 35 34
10 6 21 22 25 35 9 35 33 56 66 56 29 0 65 34 54 52 -3 4 3 8 12 8 10 0 14 -3
11 -7 -4 -3 11 -19 34 -33 67 -45 131 -113 194 -206 76 -113 164 -284 165
-321 2 -89 -2 -136 -17 -170 -8 -21 -26 -74 -38 -118 -12 -44 -27 -93 -33
-110 -21 -59 -52 -180 -52 -204 0 -13 -7 -49 -16 -80 -66 -226 -150 -385 -268
-505 -44 -45 -99 -103 -123 -129 -46 -51 -56 -87 -24 -87 22 0 45 -25 37 -39
-3 -5 1 -12 9 -15 9 -3 20 -18 26 -33 8 -23 6 -38 -11 -81 -22 -51 -22 -54 -4
-67 16 -11 17 -18 8 -55 -13 -48 6 -134 34 -149 9 -5 28 -30 42 -55 21 -40 23
-49 12 -67 -7 -11 -10 -29 -7 -40 5 -15 1 -22 -15 -26 -37 -10 -21 -44 33 -71
35 -17 47 -28 42 -39 -7 -21 46 -173 61 -173 6 0 17 7 24 15 23 28 59 17 115
-35 29 -28 58 -63 64 -78 9 -20 19 -28 42 -29 33 -3 59 -18 59 -37 0 -14 48
-84 78 -114 12 -12 22 -32 22 -44 0 -11 -23 -63 -50 -114 -54 -100 -54 -102
-40 -124 8 -13 11 -12 25 5 9 11 20 29 25 41 4 11 26 29 47 39 21 10 53 28 72
41 23 15 39 20 50 15 10 -6 27 -1 50 13 20 12 48 28 63 35 15 8 37 22 47 33
11 10 23 18 25 18 3 0 28 14 56 31 27 17 60 31 73 33 30 3 116 44 143 68 15
13 24 16 29 9 9 -16 25 -4 25 19 0 10 6 25 14 32 7 8 21 29 30 47 9 17 23 34
31 37 7 3 18 18 25 34 7 18 26 33 53 45 23 9 65 27 92 41 28 13 64 27 80 30
61 13 112 69 166 179 54 113 107 197 140 224 23 19 38 78 39 159 0 29 7 67 17
85 19 36 24 131 12 221 -6 43 -4 66 5 85 8 14 17 53 20 86 10 80 25 137 42
156 12 13 14 241 12 1550 l-3 1533 -43 16 c-42 16 -55 30 -87 97 -11 24 -12
39 -5 58 6 15 10 32 10 38 0 18 -64 116 -100 154 -16 18 -30 39 -30 47 0 8 -6
19 -14 23 -21 12 -31 53 -13 53 8 0 17 -7 21 -15 3 -8 18 -15 33 -15 26 0 26
0 7 19 -82 78 -134 154 -134 196 0 18 6 24 28 27 18 2 28 9 30 24 3 22 -80
178 -102 191 -7 5 -25 28 -40 53 -46 78 -91 124 -124 126 -16 1 -39 5 -50 8
-36 12 -35 -15 2 -50 20 -19 41 -34 46 -34 6 0 10 -9 10 -19 0 -11 4 -23 10
-26 12 -7 14 -65 3 -65 -5 0 -37 30 -73 66 -59 59 -68 65 -95 59 -16 -4 -49
-8 -73 -10 -110 -9 -133 -29 -107 -91 8 -21 13 -45 10 -55 -4 -12 1 -22 15
-29 11 -6 21 -8 21 -5 1 3 3 10 4 15 1 6 3 15 4 21 0 5 16 9 34 7 25 -2 36
-10 49 -38 14 -28 29 -39 74 -55 31 -11 56 -24 55 -29 0 -4 -21 -10 -45 -12
-33 -2 -51 2 -69 16 -34 27 -63 25 -83 -5 -19 -29 -14 -38 38 -72 33 -20 50
-24 84 -20 64 7 73 -5 30 -43 -27 -24 -34 -36 -26 -45 13 -15 75 -30 112 -26
29 2 45 -13 26 -25 -7 -4 -56 -8 -109 -9 -62 0 -102 -5 -112 -13 -17 -14 -12
-45 9 -63 23 -19 17 -40 -10 -33 -18 4 -25 1 -29 -16 -8 -33 1 -48 39 -62 30
-10 34 -16 29 -36 -3 -13 2 -35 12 -52 16 -28 16 -32 1 -58 -16 -26 -15 -28 7
-51 14 -12 29 -20 35 -16 5 3 14 -4 19 -17 5 -13 27 -40 50 -61 22 -21 41 -46
41 -57 0 -16 -5 -18 -37 -13 -32 5 -35 4 -30 -11 4 -10 7 -25 7 -34 0 -10 10
-22 23 -27 23 -11 38 -65 17 -65 -7 0 -10 -13 -8 -32 l3 -33 -53 0 c-28 0 -52
-4 -52 -8 0 -4 -9 -3 -19 3 -30 15 -34 12 -13 -10 10 -11 24 -39 31 -61 7 -22
17 -42 24 -43 7 -2 37 -9 69 -15 35 -8 59 -18 62 -28 10 -25 -7 -35 -39 -23
-22 8 -35 8 -52 -1 -20 -11 -30 -9 -67 9 -24 12 -59 22 -78 22 -20 0 -70 17
-119 41 -69 33 -97 42 -155 44 -39 2 -83 9 -98 15 -15 5 -44 10 -64 10 l-37
-1 29 -25 c15 -14 26 -28 22 -31 -6 -7 -12 -5 -118 48 -57 27 -71 31 -91 22
-19 -9 -29 -8 -44 2 -28 20 -104 38 -115 27 -9 -9 16 -36 51 -56 92 -52 131
-79 161 -112 77 -84 149 -154 158 -154 14 0 82 -78 82 -93 0 -8 -3 -17 -6 -20
-7 -7 -44 10 -59 28 -12 14 -121 97 -180 137 -22 15 -51 28 -64 28 -22 0 -23
3 -17 44 6 39 4 46 -15 56 -11 7 -30 9 -41 7 -15 -4 -23 2 -34 29 -8 20 -21
34 -32 34 -26 1 -104 38 -132 65 -32 30 -102 42 -119 21 -10 -11 -18 -13 -31
-6 -10 6 -35 10 -54 10 -48 0 -47 -18 6 -68 22 -22 42 -50 44 -63 1 -13 3 -27
3 -30 2 -16 70 -72 109 -90 27 -13 42 -26 42 -38 0 -36 -51 -36 -70 0 -6 10
-28 23 -49 29 -27 7 -46 22 -66 50 -15 22 -30 40 -34 41 -3 1 -23 3 -44 5 -21
1 -44 7 -50 13 -31 25 -127 53 -187 55 -36 1 -91 9 -123 19 -57 16 -87 14 -87
-5 0 -5 8 -12 18 -15 10 -2 24 -14 31 -25 12 -19 11 -20 -6 -13 -10 4 -35 14
-56 22 -22 7 -55 25 -75 38 -39 27 -63 31 -92 15 -13 -7 -29 -5 -55 6 -20 8
-51 14 -68 12 l-32 -3 30 -27 c16 -16 33 -28 37 -28 18 0 144 -95 159 -119 20
-33 77 -91 90 -91 15 0 34 -49 23 -60 -10 -10 -39 3 -120 57 -27 18 -59 33
-72 33 -28 0 -39 26 -23 52 17 27 -13 62 -45 54 -23 -6 -40 8 -45 38 -3 13
-21 24 -56 36 -29 9 -60 23 -69 31 -9 8 -35 19 -57 24 -48 12 -58 31 -23 44
13 6 35 24 47 40 13 17 28 31 33 31 6 0 24 13 39 29 25 27 27 35 22 75 -6 44
-6 46 20 46 14 0 37 7 50 16 23 15 27 15 50 0 35 -23 52 -20 63 13 15 44 43
55 87 34 28 -13 38 -14 48 -4 9 9 9 14 -3 21 -13 9 -13 10 0 10 8 -1 27 -20
41 -44 36 -59 61 -64 92 -17 19 27 24 44 20 69 l-5 33 27 -23 c15 -13 44 -37
64 -54 20 -17 44 -34 54 -37 9 -4 17 -11 17 -18 0 -7 15 -9 49 -4 56 8 91 -6
91 -34 0 -10 16 -31 35 -46 26 -20 34 -32 30 -46 -5 -14 0 -22 21 -30 29 -10
74 -5 74 9 0 5 -13 21 -30 37 -16 16 -30 35 -30 42 0 7 -6 13 -14 13 -20 0
-66 39 -66 56 0 8 -10 28 -21 44 -12 16 -19 36 -16 44 7 19 48 21 65 4 9 -9
12 -9 12 -1 0 7 -14 20 -30 30 -38 22 -36 52 5 73 17 8 32 16 33 17 2 1 1 11
-3 23 -5 15 -14 20 -29 18 -12 -1 -38 8 -58 20 -25 15 -45 21 -61 17 -27 -7
-62 7 -87 35 -21 25 -99 35 -106 15 -4 -8 -11 -15 -18 -15 -23 0 -126 94 -126
116 0 19 33 26 64 14 15 -5 48 -10 73 -10 28 0 53 -6 64 -15 19 -18 67 -11 76
11 3 8 11 14 17 14 7 0 21 6 32 14 18 13 16 15 -29 27 -27 6 -45 15 -40 20 4
4 52 9 106 11 54 1 104 6 110 10 13 8 10 9 -38 14 -59 6 -110 17 -121 25 -6 5
-35 14 -64 20 -38 8 -63 21 -83 42 -25 27 -27 31 -11 40 9 5 36 7 60 3 66 -9
77 -1 68 47 l-6 41 25 -17 c21 -14 31 -15 51 -6 47 22 136 -15 136 -56 0 -11
-10 -13 -44 -9 -53 8 -66 -7 -29 -34 19 -13 43 -19 73 -18 l45 1 -1 53 c-2 56
4 61 46 37 30 -17 40 -18 40 -5 0 6 -6 10 -14 10 -19 0 -31 57 -17 74 9 10 7
15 -5 20 -19 7 -117 19 -149 18 -11 -1 -30 5 -42 13 -12 8 -33 15 -46 15 -14
0 -30 6 -36 14 -11 14 -52 22 -151 31 -66 6 -174 41 -190 61 -14 16 2 44 25
44 7 0 20 11 28 24 19 28 77 42 108 26 16 -9 24 -8 39 5 9 9 21 15 26 14 24
-4 23 3 -5 27 -63 53 -28 73 87 50 115 -23 155 -30 177 -30 139 1 153 3 157
28 6 28 -7 35 -90 57 -30 7 -61 22 -70 34 -10 11 -36 35 -58 53 -51 39 -91 42
-131 8 -16 -13 -40 -26 -53 -28 -27 -3 -42 -38 -17 -38 18 0 30 -27 17 -35 -5
-3 -18 -1 -29 5 -30 15 -126 12 -172 -7 -40 -16 -42 -15 -56 3 -20 27 -13 86
10 90 41 6 29 16 -15 13 -26 -2 -50 0 -54 4 -4 3 -14 3 -23 -2 -24 -12 -101 8
-108 27 -3 9 -15 25 -27 34 -17 14 -19 19 -8 30 10 10 16 10 30 0 34 -24 74
-43 79 -38 6 6 -63 76 -76 76 -5 0 -11 6 -13 13 -3 8 -33 12 -101 12 -53 1
-100 4 -104 9 -12 12 37 43 61 39 18 -4 22 0 21 24 0 24 3 28 26 25 19 -2 31
4 42 21 31 47 4 110 -43 105 -35 -4 -36 24 -2 44 28 17 29 17 70 -19 30 -26
39 -40 32 -48 -17 -20 0 -45 31 -46 16 -1 35 -2 42 -3 6 -1 12 8 12 19 0 12 7
20 17 20 30 0 32 15 4 44 -21 21 -40 30 -79 34 -29 4 -53 11 -55 17 -2 5 -12
10 -23 10 -13 0 -21 9 -25 28 -4 21 -15 32 -38 40 -18 7 -42 22 -52 33 -18 20
-18 22 -1 34 32 23 18 35 -18 14 -28 -17 -44 -19 -92 -14 -77 9 -133 24 -133
35 0 15 43 40 68 40 13 0 32 -5 43 -11 16 -8 26 -7 45 6 35 22 30 40 -21 75
-69 48 -54 104 18 65 18 -9 46 -15 62 -13 l30 4 -38 16 c-21 10 -53 20 -73 24
-20 4 -38 13 -41 20 -3 8 -12 14 -21 14 -18 0 -72 17 -119 37 -37 16 -43 33
-13 33 11 0 20 4 20 8 0 11 -39 47 -69 62 -21 11 -26 10 -38 -6 -7 -10 -13
-21 -13 -26 0 -4 -4 -8 -10 -8 -5 0 -10 11 -10 25 0 16 6 25 15 25 8 0 15 4
15 9 0 15 -29 33 -44 28 -8 -3 -22 1 -33 8 -19 15 -53 20 -53 8 0 -3 7 -14 16
-24 22 -25 11 -48 -26 -55 -34 -7 -37 -19 -14 -45 14 -16 14 -18 -6 -24 -20
-6 -95 22 -150 56 -53 33 -125 59 -149 54 -20 -4 -38 2 -66 21 -34 23 -45 25
-92 19 -42 -5 -53 -10 -51 -23 2 -11 15 -16 42 -16 49 -1 57 -19 14 -31 -29
-9 -34 -15 -38 -49 -5 -38 -7 -40 -55 -54 -89 -25 -108 -25 -134 -3 -34 29
-41 26 -41 -17 0 -35 4 -41 58 -76 46 -30 60 -35 74 -27 23 15 23 15 42 -14
15 -23 15 -25 -10 -49 l-27 -24 22 -13 c27 -18 27 -45 0 -52 -14 -4 -20 -11
-16 -21 3 -8 2 -18 -3 -21 -6 -4 -10 0 -10 9 0 16 -55 66 -73 66 -6 0 -21 10
-34 22 l-23 22 11 -35 c6 -19 14 -43 19 -54 5 -11 11 -33 15 -50 3 -16 18 -41
33 -53 44 -38 121 -86 142 -87 11 -1 29 -10 41 -21 l21 -19 -53 -6 c-52 -6
-55 -4 -85 28 -39 41 -64 43 -64 5 0 -21 10 -36 42 -60 23 -18 46 -32 51 -32
15 0 167 -102 167 -112 0 -36 -97 -5 -177 55 -32 24 -71 52 -88 61 -16 10 -48
28 -70 41 -43 25 -85 32 -85 13 0 -6 15 -24 33 -39 l32 -28 -17 -31 c-10 -17
-18 -49 -18 -70 0 -27 -5 -39 -17 -44 -10 -3 -26 -11 -35 -18 -14 -10 -20 -9
-37 6 -16 14 -29 17 -63 12 -76 -11 -83 -11 -83 -1 0 10 95 46 105 40 12 -8
28 11 34 41 5 23 2 36 -10 49 -11 11 -17 30 -16 50 1 18 -3 37 -10 43 -18 14
-118 -7 -118 -26 0 -10 -7 -12 -22 -9 -29 7 -101 -8 -106 -22 -4 -13 -32 -15
-32 -2 0 5 6 16 13 23 7 7 16 21 20 31 3 9 15 17 25 17 26 0 34 11 20 27 -6 7
-9 16 -6 18 5 5 45 13 73 14 11 1 27 14 37 31 14 24 24 30 52 30 29 0 37 4 42
25 8 34 31 52 46 37 21 -21 39 -14 32 13 -9 37 25 33 60 -7 18 -21 31 -28 33
-21 3 7 -3 20 -11 29 -9 8 -16 19 -16 24 0 13 -59 42 -70 35 -5 -3 -19 -1 -30
5 -17 9 -24 7 -40 -12 l-18 -23 -13 48 c-13 52 -30 67 -55 47 -16 -14 -16 -14
-57 42 -34 47 -34 52 3 33 34 -18 145 -20 156 -3 4 6 -1 17 -12 25 -55 40 -74
57 -74 65 0 12 105 -1 147 -19 43 -17 43 0 1 21 -43 21 -74 47 -81 69 -6 15
-10 16 -28 7 -15 -8 -29 -8 -51 -1 -27 10 -35 8 -55 -11 -18 -16 -27 -19 -44
-12 -21 10 -21 11 -4 28 11 10 26 15 39 12 14 -3 29 3 45 19 13 14 29 25 37
25 7 0 16 11 20 25 3 13 12 29 20 36 8 6 14 20 14 30 0 26 19 33 39 15 23 -21
27 -20 69 6 l34 21 -26 14 c-23 12 -46 12 -133 4 -78 -8 -110 -8 -120 0 -32
27 -185 15 -238 -18 -18 -11 -25 -9 -53 10 -20 14 -32 31 -32 45 0 33 29 40
52 12 20 -25 20 -25 37 7 18 35 13 43 -24 43 -40 0 -46 16 -11 30 31 12 40 27
25 43 -10 10 -19 10 -48 -4 -20 -10 -52 -19 -71 -21 -32 -3 -35 -1 -38 26 -3
21 3 36 22 53 33 30 27 39 -27 48 -23 4 -53 13 -67 20 -16 8 -52 12 -95 10
-93 -4 -92 -4 -75 -15 8 -6 27 -8 41 -5 33 7 108 -9 126 -28 11 -11 12 -19 2
-40 -10 -21 -19 -27 -45 -27 -18 0 -39 7 -48 15 -8 8 -28 15 -45 15 -23 0 -31
5 -31 18 -1 9 -20 29 -44 45 -37 23 -55 27 -112 27 -59 0 -71 3 -94 25 -21 20
-36 24 -93 26 -37 1 -70 -1 -74 -4 -3 -4 -12 -2 -18 3 -13 11 -70 8 -168 -9
-96 -16 -185 8 -187 50 0 14 -30 17 -66 7 -31 -8 -39 -7 -46 6 -10 18 -78 23
-78 6 0 -15 -46 -12 -59 4 -9 11 -9 20 -2 35 6 11 11 33 11 50 0 16 5 33 10
36 34 21 -13 25 -283 25 -215 0 -296 -3 -305 -12 -9 -9 -12 -9 -12 0 0 19
-146 16 -154 -3 -3 -8 -22 -23 -43 -33 -21 -9 -41 -21 -44 -26 -4 -5 -24 -10
-45 -11 -22 -2 -47 -6 -57 -10 -19 -8 -47 10 -47 29 0 24 26 48 60 56 27 6 14
8 -55 8 -57 1 -107 -5 -135 -14z m4232 -3287 c25 -24 75 -59 112 -76 36 -18
66 -39 66 -47 0 -8 8 -14 18 -14 26 0 62 -29 62 -50 0 -46 -56 -36 -91 15 -23
33 -58 52 -86 47 -7 -2 -13 3 -13 11 0 21 -30 42 -78 56 -50 14 -71 46 -53 80
7 11 13 21 15 21 1 0 23 -20 48 -43z m2006 -219 c8 2 29 -10 47 -28 24 -24 45
-34 79 -37 25 -3 54 -14 66 -25 22 -20 19 -38 -7 -38 -10 0 -14 -6 -10 -20 3
-10 -1 -24 -8 -30 -15 -12 -45 -3 -45 14 0 7 -19 27 -42 44 -24 18 -65 52 -93
77 -41 37 -47 47 -35 55 10 7 18 5 25 -4 6 -7 16 -11 23 -8z m-1157 -8 c19 -5
48 -23 64 -40 23 -24 37 -30 70 -30 28 0 47 -6 59 -18 15 -18 15 -20 -3 -36
-11 -10 -17 -25 -14 -35 9 -37 -20 -35 -51 2 -17 21 -36 37 -42 37 -7 0 -35
22 -65 50 -29 27 -58 51 -66 54 -17 7 -17 26 0 26 6 0 28 -5 48 -10z m-4573
-800 c54 -25 57 -55 7 -87 -43 -29 -79 -29 -106 -2 -25 25 -19 64 13 92 25 21
33 21 86 -3z m-536 -82 c42 -56 49 -74 40 -115 -8 -37 10 -111 41 -168 6 -11
16 -45 22 -75 12 -59 32 -73 50 -32 12 28 19 28 59 -3 25 -19 35 -22 44 -13 9
9 12 8 12 -5 0 -9 -4 -17 -10 -17 -11 0 -13 -39 -4 -64 9 -23 34 -1 34 29 l0
22 44 -21 c36 -18 69 -49 124 -121 13 -18 35 -92 30 -106 -3 -9 -17 -13 -40
-11 -31 3 -37 0 -47 -27 -12 -27 -9 -37 28 -112 23 -45 39 -89 36 -98 -2 -9
-16 -28 -30 -43 -37 -40 -95 -39 -136 1 -36 36 -37 57 -3 87 28 27 37 29 63
12 10 -6 26 -8 36 -4 16 6 16 9 -10 36 -24 26 -26 32 -17 59 10 27 8 35 -14
61 -14 16 -34 30 -45 30 -22 0 -22 0 -9 -34 24 -63 -19 -68 -103 -12 -30 19
-52 43 -59 64 -9 25 -18 32 -38 32 -60 0 -93 63 -49 94 27 18 15 40 -17 32
-26 -7 -33 11 -13 31 8 8 8 17 0 30 -5 11 -7 29 -4 41 3 12 -3 35 -15 54 -11
18 -24 51 -27 73 -4 22 -14 53 -22 69 -15 28 -26 84 -40 190 -4 35 -2 50 8 57
28 17 57 9 81 -23z m-160 0 c25 -20 32 -57 13 -64 -13 -5 -15 -15 -9 -48 3
-22 6 -65 6 -94 0 -49 29 -163 48 -187 4 -5 11 -32 15 -60 4 -27 14 -66 22
-85 8 -21 13 -63 12 -105 -1 -38 3 -99 10 -133 12 -64 8 -116 -12 -140 -10
-12 -8 -19 31 -112 8 -18 11 -20 11 -7 1 25 28 21 57 -10 30 -32 27 -47 -10
-51 -16 -2 -26 -8 -23 -15 10 -27 28 -129 24 -134 -3 -2 -35 5 -71 17 -61 21
-67 22 -90 6 -35 -22 -55 -20 -60 7 -19 87 -36 199 -31 207 8 14 -13 117 -32
160 -14 29 -15 59 -8 200 4 91 7 179 7 195 0 17 0 111 -1 209 0 98 4 196 9
217 9 33 15 39 38 39 16 0 35 -6 44 -12z m555 -281 c6 -13 14 -50 18 -82 l8
-58 -48 7 c-36 6 -54 15 -74 38 -49 58 -51 97 -5 76 24 -11 28 -9 46 15 24 33
41 34 55 4z m-2055 -406 c13 1 41 -6 63 -16 36 -16 50 -16 160 -5 125 13 172
8 186 -21 3 -8 12 -36 18 -64 11 -44 10 -51 -4 -60 -9 -5 -26 -18 -37 -27 -12
-10 -29 -18 -40 -18 -24 0 -23 -25 2 -43 25 -18 16 -27 -27 -27 -19 0 -43 -5
-54 -11 -15 -8 -24 -7 -35 2 -21 18 -30 1 -44 -83 -9 -51 -17 -71 -32 -79 -16
-8 -23 -8 -29 2 -13 22 -17 8 -20 -70 -3 -55 -7 -75 -19 -79 -8 -3 -21 -12
-28 -19 -18 -17 -41 -5 -48 26 -3 14 -12 46 -20 71 -8 25 -19 59 -23 75 -4 17
-14 42 -21 55 -8 14 -15 48 -16 75 -1 28 -7 68 -12 90 -6 22 -12 77 -14 122
-2 46 -6 83 -9 83 -10 0 -6 34 5 46 7 8 19 6 43 -8 18 -11 43 -19 55 -17z
m1756 -107 c12 -8 22 -21 22 -29 0 -7 14 -26 30 -42 51 -48 31 -103 -26 -72
-29 15 -57 3 -62 -27 -5 -28 -32 -46 -49 -33 -21 18 -15 37 17 54 33 17 37 36
20 94 -6 22 -6 40 1 52 12 23 18 23 47 3z m278 -409 c20 -14 46 -25 58 -25 12
0 30 -7 40 -15 11 -8 32 -15 46 -15 14 0 31 -5 38 -12 12 -12 16 -95 6 -122
-11 -29 -49 -18 -90 27 -22 23 -55 53 -73 67 -59 43 -71 59 -71 90 0 17 2 30
5 30 2 0 21 -11 41 -25z m6390 -162 c4 -16 18 -44 31 -63 12 -19 23 -46 23
-61 0 -56 48 -146 65 -120 3 6 3 16 0 21 -12 19 26 23 41 4 19 -24 44 -82 44
-101 0 -8 9 -26 20 -40 11 -14 23 -41 26 -61 4 -20 18 -57 31 -83 12 -26 23
-58 23 -73 0 -14 9 -33 19 -43 14 -13 19 -31 19 -66 -1 -56 -15 -71 -50 -58
-35 13 -42 38 -18 58 25 22 25 35 0 64 -15 19 -21 21 -28 11 -5 -8 -20 -12
-33 -10 -18 2 -25 12 -32 40 -6 24 -21 46 -43 63 -41 31 -47 72 -11 77 16 2
23 11 25 32 4 28 3 29 -36 24 -39 -6 -40 -5 -46 31 -7 46 -95 211 -112 211 -7
0 -16 -4 -19 -10 -11 -18 -35 -11 -46 14 -7 15 -9 43 -5 70 6 39 11 45 37 51
16 4 34 15 39 26 15 27 28 24 36 -8z m-398 -206 c10 -18 22 -51 26 -73 4 -21
17 -56 29 -77 21 -38 22 -39 2 -53 -11 -8 -26 -12 -35 -8 -8 3 -30 8 -47 11
-28 5 -33 2 -33 -13 -1 -17 -3 -17 -20 5 -29 34 -25 64 11 90 31 23 31 25 26
81 -9 79 7 94 41 37z"/>
<path d="M4999 10796 c-1 -9 -2 -22 -3 -28 -1 -9 20 -15 59 -19 48 -6 64 -12
83 -35 20 -23 27 -26 43 -16 10 7 32 12 48 12 17 0 33 5 36 10 3 6 15 10 25
10 42 0 119 22 124 36 17 45 -47 60 -106 24 -26 -15 -51 -20 -110 -20 -43 0
-78 4 -78 9 0 5 -20 8 -44 8 -25 0 -52 5 -60 13 -13 10 -16 10 -17 -4z"/>
<path d="M3100 10505 c-7 -8 -9 -15 -5 -15 4 0 -7 -10 -25 -22 -18 -13 -42
-39 -53 -58 -11 -19 -30 -44 -42 -56 -13 -12 -30 -34 -38 -51 -9 -16 -36 -48
-61 -71 -25 -23 -52 -58 -60 -76 -8 -19 -23 -39 -34 -45 -11 -6 -23 -25 -27
-43 -4 -18 -14 -43 -22 -56 -18 -30 -33 -117 -22 -134 7 -11 9 -11 9 0 0 9 7
11 20 7 10 -3 28 -1 40 5 18 9 20 8 20 -15 0 -14 5 -25 10 -25 6 0 10 -9 10
-19 0 -26 15 -34 37 -22 10 5 26 12 36 15 13 4 16 12 11 30 -3 14 0 34 9 48 8
12 20 53 25 90 6 37 15 75 20 84 8 15 11 14 31 -7 17 -18 21 -19 21 -6 0 8 -4
19 -10 22 -16 10 -12 45 5 45 8 0 15 6 15 14 0 8 -7 16 -15 20 -8 3 -15 11
-15 19 0 15 47 53 83 66 21 8 26 20 35 88 6 43 16 98 21 123 12 59 -1 79 -29
45z"/>
<path d="M6605 10446 c-22 -7 -66 -19 -98 -26 -45 -9 -61 -17 -69 -35 -6 -13
-24 -28 -39 -34 -49 -17 -37 -40 19 -38 48 2 107 30 97 46 -3 5 13 18 34 30
39 20 40 20 46 1 9 -28 20 -25 72 17 39 32 43 38 26 44 -26 11 -43 10 -88 -5z"/>
<path d="M7195 10320 c-3 -5 -33 -10 -65 -10 -32 0 -62 -5 -66 -11 -4 -7 -22
-8 -53 -4 -25 4 -73 8 -106 9 -33 0 -65 4 -71 8 -12 8 -88 -25 -99 -43 -4 -5
-18 -14 -31 -19 -59 -23 -7 -37 112 -31 23 2 45 -2 49 -8 8 -14 62 -14 70 -1
9 14 58 13 73 -2 7 -7 12 -22 12 -35 0 -25 15 -31 23 -10 4 10 6 10 6 0 1 -7
13 -13 27 -13 18 0 24 4 21 13 -3 8 -2 20 3 27 11 17 45 -3 45 -27 0 -14 8
-18 34 -19 20 -1 37 -8 43 -17 11 -21 58 -23 58 -3 0 8 7 17 16 20 13 5 14 9
4 22 -20 24 3 41 38 28 52 -19 132 20 132 64 0 10 -6 12 -22 7 -61 -19 -113
-23 -121 -9 -4 8 -16 14 -25 14 -10 0 -22 13 -29 30 -9 24 -17 30 -42 30 -16
0 -33 -4 -36 -10z"/>
<path d="M8420 10076 c0 -8 4 -18 10 -21 5 -3 14 -14 20 -24 9 -17 6 -17 -46
2 -47 17 -57 18 -65 6 -5 -8 -5 -23 -2 -34 4 -11 7 -35 8 -53 0 -32 4 -35 79
-70 81 -37 128 -72 139 -105 8 -23 35 -33 50 -18 15 15 -25 94 -55 108 -30 14
-55 78 -38 98 18 21 34 19 68 -10 17 -14 41 -25 55 -25 14 0 28 -4 31 -9 3 -4
19 -11 34 -14 16 -3 43 -17 60 -31 16 -15 39 -26 51 -26 12 0 29 -4 39 -9 9
-5 55 -27 102 -49 97 -45 130 -73 111 -96 -10 -12 -5 -23 28 -59 26 -28 53
-47 73 -51 17 -3 39 -13 49 -21 34 -32 235 -46 224 -17 -3 8 -5 19 -5 26 0 7
-16 28 -35 47 -23 24 -36 47 -39 72 -7 49 -24 73 -101 140 -41 35 -82 61 -108
68 -23 6 -60 20 -82 32 -22 11 -58 22 -80 24 -22 1 -66 6 -98 9 l-58 7 7 -27
c4 -18 2 -26 -6 -26 -16 0 -80 39 -80 49 0 13 -231 99 -307 116 -26 5 -33 3
-33 -9z"/>
<path d="M9606 9391 c-16 -3 -31 -11 -33 -18 -5 -14 67 -53 97 -53 17 0 20 -6
18 -32 -2 -23 1 -33 12 -34 8 0 23 -2 32 -2 10 -1 24 -15 33 -32 18 -34 35
-39 35 -10 0 31 26 24 56 -16 15 -19 42 -41 60 -49 18 -7 40 -25 49 -39 10
-14 25 -26 35 -26 10 0 23 -7 30 -15 7 -8 32 -24 56 -35 24 -10 44 -25 44 -33
0 -23 46 -59 71 -55 19 2 24 10 27 41 2 34 -3 44 -50 94 -29 30 -72 64 -95 74
-24 10 -52 32 -64 51 -21 32 -119 118 -134 118 -4 0 -4 -11 -1 -25 8 -33 -15
-43 -49 -21 -15 10 -26 12 -30 6 -12 -20 -25 -9 -25 20 0 20 -5 30 -15 30 -8
0 -32 16 -54 35 -38 35 -51 38 -105 26z"/>
<path d="M9500 9341 c-8 -5 -32 -11 -52 -15 -21 -4 -40 -11 -43 -16 -10 -16
18 -51 58 -71 42 -22 43 -25 20 -51 -15 -17 -15 -21 2 -58 15 -33 23 -40 46
-40 29 0 63 -25 54 -40 -10 -17 40 -38 104 -45 l64 -6 -24 30 c-13 16 -39 37
-57 46 -18 9 -37 28 -43 41 -5 14 -21 36 -37 49 -34 28 -67 115 -58 155 6 31
-5 38 -34 21z"/>
<path d="M9710 9165 c0 -22 48 -93 92 -137 51 -49 51 -70 1 -62 -30 4 -43 1
-60 -16 -13 -11 -23 -28 -23 -37 0 -20 35 -51 76 -69 47 -20 94 -19 137 3 36
18 38 21 23 36 -21 20 -20 26 5 53 l21 23 -22 35 c-26 43 -56 50 -46 11 11
-43 -21 -29 -51 23 -35 59 -54 82 -69 82 -7 0 -23 13 -36 28 -31 38 -48 47
-48 27z"/>
<path d="M8972 8162 c-28 -8 -30 -25 -5 -33 87 -27 130 -70 83 -82 -37 -10
-21 -36 43 -69 41 -22 77 -33 106 -34 29 0 48 -6 56 -17 17 -23 62 -22 75 3 9
16 20 19 65 18 64 -2 80 7 39 22 -53 20 -91 71 -41 55 12 -4 52 -8 89 -10 61
-2 68 0 74 18 13 40 -77 91 -92 52 -7 -18 -45 -20 -61 -4 -6 6 -31 12 -55 14
-23 1 -83 14 -133 30 -49 15 -106 29 -125 30 -19 1 -48 5 -65 8 -16 3 -40 3
-53 -1z"/>
<path d="M8870 6133 c-16 -25 -32 -63 -35 -82 -3 -20 -9 -58 -14 -86 -9 -54
-2 -125 14 -128 5 -1 13 17 18 40 7 36 14 44 56 67 56 29 71 23 90 -32 11 -34
49 -82 65 -82 26 0 -27 138 -59 155 -60 31 -76 48 -70 74 3 16 0 34 -9 46 -9
12 -12 31 -9 48 8 42 -14 33 -47 -20z"/>
<path d="M8083 5703 c-14 -21 -18 -48 -18 -129 0 -100 1 -103 33 -146 18 -23
37 -55 43 -70 l10 -26 45 15 c44 15 49 14 131 -13 l85 -28 27 32 c34 42 59 41
109 -5 69 -64 91 -141 63 -216 -14 -37 -14 -77 0 -77 13 0 79 69 79 83 0 5 7
24 16 43 12 25 14 44 8 71 -4 21 -8 45 -9 53 -5 41 -22 65 -78 112 -34 28 -72
65 -83 82 -12 18 -47 53 -78 78 -45 37 -71 50 -125 62 -77 18 -161 51 -161 64
0 7 -62 42 -75 42 -3 0 -13 -12 -22 -27z"/>
<path d="M7841 5407 c-1 -45 4 -98 10 -117 5 -19 17 -79 24 -133 16 -110 23
-127 39 -106 13 18 74 44 82 36 3 -3 23 1 44 8 21 7 40 12 42 9 7 -7 68 17 68
27 0 5 14 16 31 25 29 14 31 19 26 55 -3 22 -16 55 -28 74 -21 30 -25 32 -40
19 -9 -8 -36 -14 -66 -14 -46 0 -54 3 -84 38 -37 42 -70 95 -79 127 -3 11 -15
20 -26 20 -10 1 -24 4 -30 8 -9 5 -12 -17 -13 -76z"/>
<path d="M6702 4927 c-6 -7 -10 -54 -9 -105 0 -58 -4 -97 -11 -104 -18 -18
-15 -25 13 -32 29 -7 31 -16 11 -55 -23 -43 -43 -56 -61 -41 -42 35 -50 -53
-12 -132 30 -64 52 -64 43 0 -7 54 4 82 22 59 13 -15 11 -107 -2 -107 -5 0 -2
-8 8 -19 9 -10 14 -25 11 -34 -4 -8 -1 -18 5 -22 7 -4 10 0 8 11 -5 30 25 22
33 -7 5 -22 2 -29 -17 -38 -15 -6 -24 -19 -24 -32 0 -13 -7 -30 -16 -40 -8 -9
-16 -31 -16 -48 -1 -30 -32 -70 -44 -58 -4 3 -15 2 -26 -4 -16 -9 -19 -17 -14
-47 12 -69 15 -115 8 -126 -4 -6 -9 3 -12 19 -4 24 -10 30 -30 30 -21 0 -26
-6 -30 -34 -3 -22 -12 -37 -24 -41 -11 -4 -25 -24 -33 -46 l-12 -39 4 35 c4
31 2 35 -19 36 -17 1 -22 -3 -19 -15 2 -9 -5 -25 -16 -35 -19 -17 -20 -17 -40
3 -28 28 -28 82 0 107 12 10 28 34 36 53 13 30 13 36 -1 50 -11 10 -16 11 -16
3 0 -7 -7 -12 -15 -12 -7 0 -18 -7 -23 -16 -8 -14 -10 -12 -16 11 -4 15 -10
24 -14 20 -10 -9 -9 -155 0 -149 11 7 11 6 -12 -54 -11 -29 -20 -65 -20 -81 0
-54 -16 -81 -49 -81 -15 0 -33 -6 -38 -12 -16 -21 -34 -108 -27 -130 6 -21
-15 -48 -49 -61 -9 -3 -20 -20 -23 -37 -5 -22 -16 -35 -40 -46 -28 -13 -34
-22 -34 -47 0 -17 -7 -38 -16 -48 -14 -16 -18 -16 -54 0 -22 9 -41 23 -44 31
-3 11 -4 11 -5 -2 -1 -14 -10 -18 -37 -18 -45 0 -67 23 -51 57 7 16 6 31 -3
53 -17 41 -30 38 -30 -8 0 -26 -7 -45 -20 -57 -11 -10 -20 -25 -20 -34 0 -17
-30 -82 -48 -104 -5 -7 -11 -21 -13 -31 -3 -15 -19 -23 -63 -33 -63 -14 -76
-9 -76 30 0 24 -13 21 -44 -10 -15 -15 -37 -32 -49 -38 -19 -9 -22 -17 -19
-57 6 -78 -14 -110 -44 -70 -12 16 -13 15 -14 -8 0 -32 -15 -55 -29 -46 -5 4
-16 -2 -23 -13 -9 -14 -19 -19 -35 -15 -19 5 -22 2 -21 -27 1 -18 -4 -35 -10
-37 -7 -2 -12 -10 -12 -17 0 -18 -39 -30 -53 -16 -9 9 -8 17 1 31 15 25 16 82
0 98 -8 8 -19 8 -44 -3 -18 -7 -34 -11 -37 -9 -2 3 -12 -7 -22 -22 -15 -24
-19 -25 -27 -10 -5 9 -6 21 -2 28 5 8 2 9 -10 5 -10 -4 -29 -7 -43 -7 l-26 0
5 -90 c3 -50 2 -93 -3 -96 -5 -3 -24 -2 -43 1 -23 5 -36 14 -40 28 -6 21 -7
21 -21 3 -19 -25 -40 -8 -49 37 -6 33 -40 65 -51 47 -3 -6 -1 -10 4 -10 6 0
11 -5 11 -11 0 -5 -5 -7 -12 -3 -8 5 -9 2 -5 -10 4 -11 -1 -29 -13 -46 -11
-15 -20 -35 -20 -42 0 -8 -9 -23 -20 -33 -11 -10 -20 -24 -20 -32 0 -18 -25
-17 -40 2 -15 19 -70 20 -70 2 0 -7 7 -22 15 -33 20 -27 18 -58 -5 -79 -11
-10 -20 -30 -20 -44 0 -46 -11 -71 -31 -71 -11 0 -19 7 -19 15 0 8 -15 21 -34
29 -19 8 -42 27 -52 43 -24 38 -43 53 -69 53 -22 0 -59 34 -90 83 -16 25 -16
29 -1 52 13 20 14 28 4 45 -7 11 -16 20 -20 20 -5 0 -8 11 -8 25 0 13 -6 39
-14 57 -8 18 -22 58 -31 88 -16 53 -68 147 -90 162 -5 4 -15 6 -22 3 -18 -6
-42 27 -85 118 -19 42 -26 48 -47 44 -25 -5 -71 10 -71 23 0 4 -12 19 -26 34
-22 22 -33 25 -63 20 -27 -4 -41 -2 -51 11 -10 13 -15 13 -21 3 -6 -9 -9 -7
-9 9 0 15 -9 24 -31 32 -41 14 -39 15 -39 -13 0 -30 -20 -38 -45 -20 -10 8
-25 14 -33 14 -8 0 -22 10 -32 22 -18 22 -19 22 -54 5 -53 -25 -68 -23 -60 10
6 24 5 26 -17 19 -13 -4 -41 -10 -61 -13 -36 -5 -38 -4 -38 21 0 14 4 26 10
26 5 0 -1 11 -14 25 -14 15 -30 23 -38 20 -21 -8 -47 21 -41 45 3 11 10 20 15
20 5 0 24 15 41 33 18 17 49 41 69 51 43 23 125 97 160 146 41 57 43 74 10
111 l-28 31 -27 -33 c-41 -53 -79 -89 -91 -89 -7 0 -17 -5 -23 -11 -7 -7 -26
-13 -44 -14 -17 -2 -34 -7 -38 -12 -3 -5 -31 -15 -62 -22 -51 -12 -63 -12
-115 5 -81 26 -254 26 -344 0 -87 -25 -119 -37 -133 -51 -7 -6 -37 -29 -67
-52 -71 -53 -114 -94 -129 -121 -10 -20 -9 -23 14 -32 15 -6 30 -10 35 -10 15
0 60 -23 60 -30 0 -4 -20 -32 -45 -62 -32 -39 -45 -64 -45 -86 0 -21 -10 -41
-30 -62 -30 -30 -31 -34 -27 -103 6 -98 32 -173 79 -225 21 -23 44 -53 50 -67
6 -14 19 -25 29 -25 11 0 25 -17 39 -47 64 -139 79 -158 102 -135 8 8 7 24 -2
57 -16 58 -1 75 38 44 14 -10 33 -19 42 -19 10 0 31 -7 46 -15 16 -8 36 -15
44 -15 9 0 25 -7 37 -15 17 -12 54 -16 155 -18 134 -2 224 9 266 32 12 7 31
10 41 6 19 -6 45 -51 33 -57 -9 -4 -42 -108 -42 -134 0 -16 -2 -16 -10 -4 -14
23 -31 0 -45 -62 -10 -48 -14 -53 -41 -55 -67 -5 -105 -16 -122 -37 -23 -29
-87 -47 -164 -45 -75 2 -105 -6 -135 -34 -25 -23 -29 -51 -12 -94 6 -15 13
-73 15 -128 4 -127 13 -207 23 -201 11 7 28 -7 35 -31 9 -29 -10 -39 -26 -13
-24 37 -48 19 -48 -36 0 -14 -7 -39 -17 -57 -9 -18 -17 -58 -18 -89 -1 -31 -6
-63 -12 -70 -5 -7 -16 -39 -23 -70 -7 -32 -21 -65 -32 -74 -10 -10 -18 -23
-18 -31 0 -24 -63 -127 -92 -151 -29 -25 -36 -60 -16 -80 16 -16 28 -15 28 3
0 9 7 18 15 21 8 4 15 10 15 16 0 18 30 40 46 34 13 -5 14 -9 5 -20 -7 -8 -18
-43 -25 -78 -14 -70 -34 -83 -48 -30 -7 25 -14 32 -33 32 -14 0 -25 -7 -27
-17 -5 -24 33 -95 48 -89 18 7 24 -5 13 -26 -14 -26 -2 -58 22 -58 13 0 21 9
25 28 3 15 12 36 20 47 14 19 15 19 39 -10 14 -18 24 -43 25 -63 0 -23 8 -41
27 -58 22 -20 27 -34 28 -78 1 -29 5 -57 8 -63 9 -14 10 -90 2 -134 -5 -26 -3
-40 9 -51 12 -13 14 -30 9 -81 -3 -36 -3 -73 1 -83 6 -16 8 -16 26 1 18 17 20
16 39 -16 12 -19 18 -42 15 -53 -3 -10 0 -38 6 -62 11 -39 16 -44 41 -44 16 0
29 -4 29 -10 0 -5 16 -16 35 -24 26 -11 35 -21 35 -38 0 -19 9 -27 38 -38 20
-7 50 -14 67 -16 16 -1 37 -11 46 -23 10 -12 32 -24 51 -27 18 -4 38 -12 43
-19 6 -7 33 -23 60 -36 l50 -24 -1722 -3 c-1715 -2 -1723 -2 -1723 -22 0 -20
9 -20 5400 -20 l5400 0 0 405 c0 250 -4 405 -10 405 -5 0 -21 11 -35 26 -26
26 -45 25 -45 -4 0 -10 -9 -23 -20 -30 -17 -10 -19 -19 -13 -57 5 -42 4 -45
-17 -45 -22 0 -23 3 -17 57 3 32 2 52 -2 44 -5 -7 -19 -11 -32 -9 -20 3 -24
-2 -27 -28 -3 -26 3 -36 27 -54 17 -12 31 -30 31 -41 0 -10 5 -19 11 -19 7 0
9 -11 6 -27 -3 -15 0 -34 6 -43 12 -20 2 -54 -14 -45 -6 4 -8 13 -5 20 3 8 -6
21 -20 30 -18 12 -23 21 -18 39 3 13 1 27 -5 30 -6 4 -11 19 -11 34 0 16 -8
32 -20 40 -11 7 -20 19 -20 27 0 21 -35 32 -95 30 -66 -3 -65 -3 -59 -19 7
-19 -23 -28 -46 -14 -15 9 -24 9 -43 -1 -21 -11 -30 -11 -57 2 -25 13 -36 14
-50 5 -14 -9 -22 -9 -34 1 -14 12 -17 9 -22 -17 -5 -24 -12 -32 -33 -34 -20
-2 -27 -9 -29 -30 -4 -33 -11 -34 -45 -8 -14 11 -32 20 -40 20 -8 0 -25 9 -38
19 l-24 19 22 29 c11 15 26 27 32 26 18 -5 12 23 -9 42 -19 17 -21 17 -72 -8
-34 -17 -56 -23 -62 -17 -6 6 -18 10 -28 10 -23 0 -41 35 -32 63 9 31 105 190
120 199 7 5 27 34 44 65 18 32 43 71 56 86 13 16 24 35 24 42 0 8 17 34 38 58
20 25 48 59 62 77 14 18 30 38 36 44 7 7 27 38 45 70 90 152 87 146 65 146 -8
0 -34 -20 -59 -44 -61 -62 -96 -67 -175 -26 -62 32 -72 44 -72 85 0 13 -5 36
-12 50 -8 19 -8 31 0 48 41 80 62 170 43 181 -5 3 -1 27 9 53 10 27 21 79 25
117 7 59 12 74 37 96 26 24 29 33 26 74 l-3 47 -29 -23 c-50 -39 -81 -72 -96
-102 -8 -16 -27 -36 -41 -45 -14 -8 -37 -31 -50 -50 -12 -20 -30 -45 -39 -56
-10 -11 -28 -40 -41 -65 -13 -25 -35 -59 -49 -76 -14 -18 -49 -67 -79 -110
-174 -252 -178 -256 -213 -213 -19 24 -19 40 0 109 5 19 7 63 4 98 -5 72 -22
89 -68 72 -15 -6 -40 -8 -55 -5 -32 7 -51 -13 -25 -27 9 -5 16 -16 16 -25 0
-11 -6 -14 -24 -9 -24 6 -25 4 -23 -41 2 -40 -1 -48 -18 -51 -30 -6 -46 -23
-67 -71 -10 -24 -21 -41 -25 -38 -3 4 0 13 7 22 7 8 10 21 7 28 -4 11 4 62 29
194 4 22 3 33 -5 33 -6 0 -11 -9 -11 -19 0 -11 -5 -21 -12 -23 -7 -3 -13 -25
-13 -54 -1 -42 -4 -49 -23 -52 -15 -2 -22 2 -22 12 0 9 -6 16 -12 17 -7 0 -3
5 9 11 27 13 52 86 41 119 -5 13 -19 32 -32 41 -23 16 -24 16 -46 -7 -16 -17
-22 -36 -22 -63 0 -22 -5 -48 -13 -58 -13 -18 -14 -18 -29 1 l-15 20 -7 -20
c-4 -11 -15 -32 -25 -46 -11 -15 -24 -49 -30 -77 -6 -28 -17 -56 -25 -63 -12
-10 -14 -3 -14 40 l0 52 -25 -28 -24 -28 -1 45 c0 25 5 62 11 83 14 50 5 60
-33 39 -33 -19 -77 -91 -78 -128 0 -11 -13 -38 -29 -60 -15 -21 -31 -52 -35
-69 -4 -16 -11 -46 -15 -65 -5 -19 -20 -55 -35 -80 -14 -25 -26 -55 -26 -66 0
-12 -8 -32 -17 -45 -18 -24 -27 -41 -76 -149 -14 -30 -35 -75 -46 -99 -12 -25
-21 -50 -21 -55 0 -6 -11 -35 -25 -64 -13 -29 -23 -53 -22 -55 2 -3 -45 -81
-54 -87 -3 -3 -12 -22 -18 -42 -7 -21 -18 -38 -26 -38 -7 0 -22 -23 -34 -51
-12 -28 -38 -64 -57 -81 -36 -32 -69 -90 -67 -119 2 -27 -128 -138 -164 -140
-14 0 -13 -2 4 -9 15 -6 21 -15 16 -25 -4 -11 -8 -13 -13 -5 -12 19 -89 -57
-96 -96 -7 -39 -39 -84 -59 -84 -31 0 -1 -28 38 -36 l42 -8 -40 -4 c-22 -2
-43 -9 -47 -15 -5 -8 -143 -13 -503 -15 -491 -4 -750 3 -710 19 11 4 -49 8
-139 8 -88 1 -157 3 -155 5 3 4 152 11 307 15 31 1 27 18 -13 57 -27 25 -35
41 -35 67 0 27 -5 36 -22 42 -13 4 -26 7 -30 6 -5 -1 -8 4 -8 9 0 6 -7 10 -16
10 -12 0 -14 7 -9 30 4 19 2 36 -5 45 -7 8 -10 26 -8 40 3 13 1 22 -4 19 -5
-4 -8 11 -6 32 2 33 7 40 28 43 14 1 28 8 33 15 5 8 10 7 16 -4 8 -11 12 -9
20 13 6 16 11 34 11 40 0 7 11 24 25 39 14 15 22 33 20 40 -4 9 3 14 16 15 12
1 25 6 28 11 3 6 15 12 26 14 23 4 65 70 65 103 0 24 22 49 33 39 4 -4 22 5
41 20 19 14 36 21 38 16 2 -6 20 1 41 15 20 14 37 22 37 18 0 -5 14 -17 31
-27 23 -13 34 -15 42 -7 6 6 28 11 49 11 27 0 38 4 38 15 0 20 36 20 44 0 9
-25 36 -18 36 10 0 23 4 25 41 25 l41 0 -5 -87 c-2 -49 -2 -71 0 -50 3 24 9
37 19 37 8 0 14 5 14 10 0 6 -4 10 -10 10 -5 0 -10 14 -10 30 0 17 4 30 9 30
5 0 7 17 4 39 -5 36 -4 38 26 44 25 5 35 15 47 44 9 21 23 46 32 56 14 16 13
19 -9 43 -23 25 -23 26 -5 40 11 7 29 11 41 8 33 -8 65 37 65 90 0 52 13 66
62 66 29 0 38 -4 38 -17 0 -14 2 -15 9 -4 7 11 9 11 14 0 3 -8 8 5 12 28 5 30
13 43 29 48 l21 6 -22 9 c-13 5 -23 14 -23 19 0 5 -3 16 -6 25 -4 11 -1 16 10
16 22 0 20 26 -4 61 -16 22 -19 33 -10 48 5 11 10 27 10 35 0 19 -36 22 -43 4
-4 -10 -6 -10 -6 0 -1 6 -9 12 -18 12 -14 0 -14 3 -5 12 7 7 34 13 60 13 l47
0 3 44 c3 40 2 42 -13 27 -24 -24 -27 -20 -20 27 10 67 15 78 41 87 28 11 34
57 9 66 -17 7 -20 41 -4 46 28 9 25 145 -6 244 -4 12 -2 25 4 28 18 12 12 44
-13 68 -30 30 -40 58 -21 58 12 0 12 4 -2 19 -15 14 -21 16 -31 6 -11 -10 -20
-10 -43 2 -16 8 -29 19 -29 24 0 6 -9 31 -21 56 -11 25 -22 55 -25 66 -5 29
-21 42 -52 42 -25 0 -27 3 -26 44 1 35 6 49 27 66 15 11 27 31 27 43 0 13 7
33 16 47 12 18 13 28 4 44 -13 25 -19 26 -48 5 -22 -15 -24 -14 -26 16 -1 8
-8 15 -16 15 -34 0 -23 253 13 293 9 10 17 25 17 33 0 8 14 26 32 41 32 27 33
28 11 34 -15 4 -23 14 -23 28 0 11 -3 31 -6 43 -6 21 -8 20 -40 -15 -28 -30
-36 -34 -44 -22 -5 8 -8 22 -6 30 16 74 19 78 46 83 29 6 44 44 33 86 -4 17
-8 19 -19 10 -8 -6 -14 -18 -14 -27 0 -12 -7 -9 -28 11 -16 15 -40 27 -54 27
-20 0 -29 7 -37 30 -5 17 -8 37 -5 44 6 16 -23 28 -70 28 -36 1 -75 41 -78 82
-1 14 -8 26 -14 26 -6 0 -17 7 -24 15 -10 12 -8 16 14 25 46 17 22 73 -34 78
-19 2 -40 12 -47 22 -12 17 -17 17 -46 6 -35 -14 -127 -10 -127 6 0 6 -6 8
-14 5 -19 -7 -32 9 -41 51 -4 21 -2 38 5 47 15 18 6 45 -13 45 -8 0 -20 -7
-27 -15 -12 -15 -30 -12 -30 6 0 14 49 31 70 24 10 -3 25 -24 34 -45 24 -61
46 -53 46 18 0 32 5 63 11 69 9 9 5 20 -15 43 -31 38 -32 46 -6 60 28 15 60
-19 60 -63 0 -30 32 -77 53 -77 11 0 8 49 -4 71 -8 15 -7 26 4 43 18 27 12 69
-14 92 -20 18 -23 44 -13 107 6 36 8 38 36 31 28 -6 29 -4 23 17 -4 13 -13 29
-20 34 -7 6 -16 31 -20 56 -9 63 -17 74 -43 60 -11 -6 -30 -11 -41 -11 -10 0
-22 -6 -24 -12 -4 -10 -6 -10 -6 0 -1 6 -10 12 -20 12 -16 0 -20 10 -26 71 -5
52 -11 69 -20 65 -8 -3 -19 2 -25 9 -14 17 -5 65 11 65 8 0 7 5 -1 15 -7 8
-10 24 -7 35 3 13 -2 25 -15 34 -14 10 -19 24 -17 48 3 52 0 62 -20 75 -15 9
-22 9 -29 0z m331 -1174 c47 -46 47 -63 3 -63 -25 0 -35 5 -39 20 -3 11 -10
20 -16 20 -7 0 -7 -9 1 -30 8 -24 7 -35 -6 -55 -9 -13 -16 -39 -16 -57 0 -32
-14 -67 -23 -58 -3 3 -12 22 -20 43 -18 43 -44 49 -53 12 -7 -28 -48 -45 -66
-27 -14 14 7 42 33 42 14 0 19 11 24 48 3 26 7 54 8 62 2 9 11 14 23 12 13 -2
34 11 55 32 19 19 39 35 45 35 6 1 27 -15 47 -36z m-3332 -1416 c9 -7 22 -29
29 -49 9 -25 20 -38 32 -38 19 0 20 -1 22 -44 1 -16 7 -31 14 -34 19 -6 14
-45 -11 -73 -19 -23 -28 -26 -68 -22 -42 4 -46 7 -41 26 3 12 13 27 21 34 14
10 12 13 -12 22 -17 7 -25 16 -21 22 4 8 9 7 15 -2 19 -30 8 9 -15 51 -27 52
-39 97 -31 110 8 14 47 12 66 -3z m4835 -1847 c8 0 14 9 14 19 0 51 33 70 49
29 9 -25 -6 -65 -33 -87 -11 -10 -13 -18 -6 -31 11 -21 5 -46 -19 -73 -9 -10
-14 -31 -13 -46 2 -21 -3 -30 -23 -39 -15 -7 -31 -10 -36 -7 -16 11 -10 44 12
59 26 18 37 86 14 86 -9 0 -15 -10 -15 -25 0 -14 -5 -25 -11 -25 -5 0 -15 -13
-20 -30 -6 -16 -17 -30 -25 -30 -17 0 -17 8 1 40 8 14 14 44 15 67 0 29 6 46
19 55 10 7 21 24 25 38 4 14 13 39 19 55 l12 30 3 -42 c2 -29 8 -43 18 -43z
m-3297 29 c13 -18 24 -48 26 -72 3 -58 4 -59 15 -52 5 3 15 -6 22 -20 11 -24
16 -26 48 -21 23 3 45 17 66 41 17 19 38 35 47 35 38 0 157 -102 157 -135 0
-7 12 -15 28 -18 32 -7 92 -48 142 -100 21 -20 44 -35 51 -32 19 7 36 -6 40
-30 3 -15 14 -21 39 -23 33 -3 69 -22 41 -22 -7 0 -10 -4 -7 -9 3 -5 -4 -11
-17 -15 -41 -10 -1723 -7 -1707 4 8 5 25 10 37 10 27 0 38 31 23 61 -19 34 1
42 105 44 86 1 97 4 111 23 8 12 22 22 29 22 19 0 45 62 45 106 0 48 30 62 74
35 25 -16 35 -18 44 -9 6 6 15 8 19 3 5 -4 2 -10 -5 -12 -6 -3 -9 -9 -6 -15 4
-6 20 5 38 27 24 28 42 39 79 46 29 5 57 5 73 -1 55 -21 124 -6 124 28 0 10
16 33 36 51 19 19 42 45 51 58 12 19 24 23 62 23 41 0 50 -4 70 -31z"/>
<path d="M7623 4108 c-15 -24 -28 -93 -23 -123 4 -23 12 -31 36 -36 17 -3 36
-9 43 -14 8 -4 16 -3 20 3 4 6 24 17 46 24 21 7 40 18 42 25 2 6 -21 30 -52
53 -30 22 -61 50 -68 60 -14 23 -32 26 -44 8z"/>
<path d="M10518 3194 c-4 -3 -55 -11 -114 -18 -63 -6 -109 -16 -111 -23 -2 -6
20 -27 49 -46 64 -41 114 -96 140 -154 10 -24 25 -43 33 -43 18 0 46 53 74
139 25 77 27 114 5 135 -15 16 -65 22 -76 10z"/>
</g>
</svg>
