<svg width="48" height="48" viewBox="0 0 48 48" fill="none" xmlns="http://www.w3.org/2000/svg">
<rect width="48" height="48" fill="#3144B4"/>
<path d="M0 24C0 10.7452 10.7452 0 24 0C37.2548 0 48 10.7452 48 24C48 37.2548 37.2548 48 24 48C10.7452 48 0 37.2548 0 24Z" fill="#3144B4"/>
<path d="M20.0625 22.7871L24 26.7246L27.9375 22.7871" stroke="#F9DAD3" stroke-width="2" stroke-linecap="round" stroke-linejoin="round"/>
<path d="M24 16.2246V26.7246" stroke="#F9DAD3" stroke-width="2" stroke-linecap="round" stroke-linejoin="round"/>
<path d="M32.25 26.7246V31.9746C32.25 32.1735 32.171 32.3643 32.0303 32.5049C31.8897 32.6456 31.6989 32.7246 31.5 32.7246H16.5C16.3011 32.7246 16.1103 32.6456 15.9697 32.5049C15.829 32.3643 15.75 32.1735 15.75 31.9746V26.7246" stroke="#F9DAD3" stroke-width="2" stroke-linecap="round" stroke-linejoin="round"/>
<circle cx="36" cy="13" r="4" fill="#FF0000" stroke="#F9DAD3" stroke-width="2"/>
</svg>
